<?xml version="1.0" encoding="UTF-8" standalone="no"?>
<svg
   version="1.0"
   width="1024.000000pt"
   height="1024.000000pt"
   viewBox="0 0 1024.000000 1024.000000"
   preserveAspectRatio="xMidYMid meet"
   id="svg14"
   sodipodi:docname="icon.svg"
   inkscape:version="1.2.2 (b0a8486541, 2022-12-01)"
   inkscape:export-filename="icon.png"
   inkscape:export-xdpi="288"
   inkscape:export-ydpi="288"
   xmlns:inkscape="http://www.inkscape.org/namespaces/inkscape"
   xmlns:sodipodi="http://sodipodi.sourceforge.net/DTD/sodipodi-0.dtd"
   xmlns="http://www.w3.org/2000/svg"
   xmlns:svg="http://www.w3.org/2000/svg">
  <defs
     id="defs18" />
  <sodipodi:namedview
     id="namedview16"
     pagecolor="#505050"
     bordercolor="#eeeeee"
     borderopacity="1"
     inkscape:showpageshadow="0"
     inkscape:pageopacity="0"
     inkscape:pagecheckerboard="0"
     inkscape:deskcolor="#505050"
     inkscape:document-units="pt"
     showgrid="false"
     inkscape:zoom="0.31896973"
     inkscape:cx="470.26406"
     inkscape:cy="746.15231"
     inkscape:window-width="1444"
     inkscape:window-height="929"
     inkscape:window-x="2245"
     inkscape:window-y="0"
     inkscape:window-maximized="0"
     inkscape:current-layer="svg14" />
  <circle
     style="fill:#ffffff;fill-opacity:1;stroke:none;stroke-width:1.70079;stroke-linecap:square;stroke-linejoin:bevel"
     id="path1300"
     cy="502.2915"
     cx="501.77267"
     r="440" />
  <g
     inkscape:groupmode="layer"
     id="layer1"
     inkscape:label="fill"
     style="fill:#59ab6e;fill-opacity:1;stroke:none">
    <path
       style="fill:#59ab6e;stroke:none;stroke-width:0.75px;stroke-linecap:butt;stroke-linejoin:miter;stroke-opacity:1;fill-opacity:1"
       d="m 259,304.8 48,1 v -31.5 l -53.39259,-6.39771 z"
       id="path521" />
    <path
       style="fill:#59ab6e;stroke:none;stroke-width:0.75px;stroke-linecap:butt;stroke-linejoin:miter;stroke-opacity:1;fill-opacity:1"
       d="m 383.16798,262.90232 1.86445,50.3198 65.92215,-4.46401 -6.71398,-48.04792 z"
       id="path1081" />
    <path
       style="fill:#59ab6e;stroke:none;stroke-width:0.75px;stroke-linecap:butt;stroke-linejoin:miter;stroke-opacity:1;fill-opacity:1"
       d="m 517.13131,253.57975 4.95996,45.16516 28.92402,-13.85078 39.03178,7.807 -10.97015,-44.98643 z"
       id="path1083" />
    <path
       style="fill:#59ab6e;stroke:none;stroke-width:0.75px;stroke-linecap:butt;stroke-linejoin:miter;stroke-opacity:1;fill-opacity:1"
       d="m 664.29252,618.96656 18.16741,127.25988 84.07434,-1.98501 21.09878,-122.54856 z"
       id="path1085" />
    <path
       style="fill:#59ab6e;fill-opacity:1;stroke:none;stroke-width:0.75px;stroke-linecap:butt;stroke-linejoin:miter;stroke-opacity:1"
       d="m 334.21634,600.67869 165.2308,-198.60645 151.78603,188.29548 27.1203,151.75298 C 609.88094,723.98691 542.98924,695.94495 502.01314,505.47266 481.52863,613.35763 445.05651,710.01896 323.60121,747.02026 l 13.33943,-103.15202 c 18.5331,-25.53944 7.92375,-34.37559 -2.7243,-43.18955 z"
       id="path1087"
       sodipodi:nodetypes="cccccccc" />
    <ellipse
       style="fill:#59ab6e;fill-opacity:1;stroke:none;stroke-width:1.70079;stroke-linecap:square;stroke-linejoin:bevel"
       id="path1194"
       cx="727.66357"
       cy="360.88074"
       rx="66.979622"
       ry="81.501579" />
  </g>
  <g
     transform="translate(0.000000,1024.000000) scale(0.100000,-0.100000)"
     fill="#000000"
     stroke="none"
     id="g12"
     inkscape:label="outline">
    <path
       d="M7140 8103 c-71 -7 -598 -85 -705 -103 -112 -20 -480 -72 -770 -110 -88 -12 -236 -32 -330 -45 -407 -59 -1151 -118 -1610 -130 -126 -3 -291 -7 -365 -10 -74 -3 -358 -1 -630 3 -272 5 -503 7 -512 4 -22 -5 -48 -62 -48 -106 0 -25 8 -45 28 -67 25 -28 32 -31 100 -32 l72 -2 0 -273 c0 -220 3 -278 15 -301 31 -62 64 -56 259 44 l165 86 180 -91 c192 -96 230 -106 272 -71 l24 19 -3 274 c-2 150 -5 281 -8 290 -5 16 13 17 213 20 120 2 219 3 220 3 0 0 6 -115 11 -256 9 -223 13 -263 30 -303 36 -81 48 -80 219 9 81 43 166 90 189 105 l41 27 124 -55 c207 -91 234 -100 266 -82 15 8 36 30 46 48 19 33 19 37 4 125 -9 51 -22 166 -28 257 -6 91 -13 168 -15 171 -6 10 35 19 86 19 25 0 108 7 185 15 77 8 147 15 156 15 12 0 21 -44 48 -242 36 -258 45 -296 82 -322 50 -35 80 -23 191 76 57 50 117 105 135 121 l32 30 143 -42 c79 -23 170 -51 203 -62 35 -12 80 -19 105 -17 38 3 47 8 63 36 19 32 19 33 -3 103 -19 65 -76 427 -68 435 4 3 48 10 643 98 165 25 341 51 390 59 50 9 116 18 149 22 164 19 219 72 171 166 -24 45 -56 53 -165 42z m-1387 -530 c10 -65 21 -131 24 -147 3 -20 2 -26 -6 -21 -6 3 -70 26 -142 51 -109 36 -134 42 -152 32 -27 -14 -179 -129 -189 -143 -4 -5 -8 6 -8 26 0 19 -7 84 -15 144 -9 59 -14 109 -13 110 2 1 109 16 238 33 129 16 237 31 240 31 3 1 13 -52 23 -116z m-1363 -158 c5 -72 12 -142 15 -157 l4 -27 -94 40 c-52 21 -106 39 -120 39 -14 0 -68 -21 -118 -47 -145 -75 -144 -75 -150 -45 -3 13 -5 77 -6 141 -1 64 -4 125 -7 137 -5 21 -1 21 173 29 98 4 203 10 233 14 30 4 56 6 57 6 1 0 7 -59 13 -130z m-1387 88 l67 -6 0 -158 0 -157 -82 35 c-183 76 -179 75 -212 62 -17 -7 -66 -29 -108 -50 l-78 -37 0 143 c0 79 -3 150 -6 159 -5 14 14 16 172 16 99 0 209 -3 247 -7z"
       id="path4" />
    <path
       d="M7178 7480 c-268 -48 -471 -210 -579 -460 -61 -142 -72 -217 -66 -463 5 -241 12 -274 82 -412 110 -218 324 -382 548 -420 l37 -6 0 -54 c0 -53 0 -54 -30 -53 -45 1 -80 -36 -80 -84 0 -45 32 -113 59 -128 11 -5 85 -10 168 -10 118 0 153 3 171 16 49 34 68 121 36 169 -17 26 -76 50 -100 41 -17 -6 -20 2 -27 61 l-5 42 47 6 c152 21 302 97 429 219 89 85 188 274 218 415 16 79 19 369 3 457 -55 315 -282 564 -586 645 -86 23 -250 33 -325 19z m283 -216 c91 -27 170 -75 246 -150 77 -77 108 -129 143 -239 43 -138 38 -471 -10 -598 -49 -132 -143 -231 -277 -293 -105 -50 -191 -67 -293 -61 -151 10 -268 64 -366 171 -76 81 -125 178 -148 289 -21 101 -22 367 -1 455 51 214 226 392 425 431 76 15 222 12 281 -5z"
       id="path6" />
    <path
       d="M4933 6355 c-17 -12 -238 -286 -363 -450 -26 -34 -234 -286 -400 -485 -53 -63 -136 -167 -185 -230 -49 -63 -155 -194 -235 -291 -80 -97 -170 -207 -200 -244 -98 -121 -206 -249 -251 -297 l-44 -47 -208 -3 -208 -3 -3 167 c-2 117 1 169 9 172 20 7 429 313 468 349 29 28 37 42 37 70 0 80 -90 128 -174 93 -21 -9 -77 -47 -124 -84 -48 -38 -109 -84 -136 -103 -26 -19 -56 -40 -65 -47 -16 -11 -18 0 -20 171 -1 101 0 194 4 208 4 17 20 30 52 43 25 11 77 49 115 84 56 53 78 83 113 156 92 190 81 298 -32 313 -60 8 -100 -17 -113 -70 -42 -160 -65 -205 -127 -249 -78 -57 -182 -47 -258 23 -49 46 -79 102 -100 191 -8 34 -22 70 -33 80 -26 26 -81 33 -124 15 -54 -23 -67 -72 -43 -169 37 -158 134 -293 257 -358 35 -18 66 -38 70 -44 4 -6 8 -100 8 -209 l0 -199 -32 27 c-240 196 -268 215 -318 215 -56 0 -99 -27 -110 -71 -16 -59 5 -96 93 -165 41 -33 138 -110 215 -172 161 -130 152 -111 152 -323 l0 -119 -220 0 c-120 0 -243 -5 -272 -11 -101 -21 -187 -90 -235 -187 -37 -76 -39 -183 -4 -252 28 -55 99 -130 122 -130 14 0 18 -13 24 -62 3 -35 17 -146 31 -248 26 -203 54 -495 54 -578 0 -59 10 -83 48 -124 l26 -28 2774 0 c2550 0 2776 1 2802 16 43 26 57 61 64 162 3 52 17 160 31 240 13 81 36 224 50 317 14 94 36 244 50 335 14 91 25 176 25 190 0 17 14 40 39 64 61 60 86 124 86 226 0 66 -5 95 -22 132 -45 98 -155 186 -273 218 -60 16 -1083 14 -1150 -2 -55 -13 -117 -43 -147 -71 -13 -11 -25 -19 -27 -16 -2 2 -122 162 -266 354 -144 193 -281 373 -304 400 -45 53 -328 427 -644 848 -123 165 -202 261 -218 267 -38 15 -107 12 -131 -5z m-26 -577 c-7 -220 -25 -438 -52 -613 -32 -208 -171 -791 -211 -882 -9 -21 -26 -67 -39 -103 -90 -251 -207 -450 -379 -642 -177 -198 -361 -341 -606 -470 -93 -49 -257 -114 -266 -105 -2 2 1 30 6 63 22 133 61 437 72 555 l12 126 44 24 c156 82 174 332 37 482 l-34 37 22 23 c12 12 67 77 122 145 55 68 129 159 165 202 36 43 165 204 288 357 256 320 345 429 687 847 66 81 122 151 123 156 12 35 14 -15 9 -202z m276 95 c161 -214 200 -265 343 -458 81 -110 180 -240 219 -290 39 -49 135 -173 211 -275 77 -102 161 -212 186 -245 47 -61 215 -256 229 -265 4 -3 7 -46 6 -95 -2 -80 1 -96 26 -147 17 -34 46 -72 71 -93 l42 -34 23 -158 c12 -87 35 -239 51 -338 44 -280 75 -514 68 -520 -9 -10 -150 49 -274 114 -329 173 -544 366 -739 666 -188 288 -290 565 -420 1138 -32 142 -47 228 -101 597 -16 105 -32 500 -21 500 3 0 39 -44 80 -97z m-10 -1633 c120 -389 309 -705 582 -975 125 -124 212 -190 385 -295 74 -45 136 -82 137 -83 1 -1 -580 0 -1290 1 l-1292 4 53 24 c83 38 233 128 324 196 274 203 506 491 655 816 89 193 173 470 243 800 l33 153 67 -263 c38 -145 84 -315 103 -378z m2649 121 c55 -35 78 -88 62 -143 -17 -60 -22 -60 -653 -55 -541 4 -564 5 -589 24 -77 57 -36 159 78 194 14 4 257 8 541 8 l515 1 46 -29z m-4488 -281 c59 -22 56 -97 -4 -137 l-33 -23 -554 0 c-599 0 -603 0 -638 54 -23 35 -15 67 24 93 l34 23 573 0 c350 0 583 -4 598 -10z m4424 -203 c-4 -39 -12 -119 -18 -177 -6 -58 -22 -172 -35 -255 -14 -82 -34 -215 -45 -295 -12 -80 -25 -172 -31 -205 l-10 -60 -359 -1 -359 -2 -6 32 c-3 17 -26 164 -51 326 -77 502 -93 603 -104 659 -5 29 -10 54 -10 55 0 0 233 0 518 -2 l518 -2 -8 -73z m-4508 -174 c0 -14 -69 -445 -125 -780 l-6 -33 -394 -2 -393 -3 -6 35 c-3 19 -17 159 -31 310 -14 151 -31 323 -38 383 l-13 107 503 0 c471 0 503 -1 503 -17z"
       id="path8" />
  </g>
  <path
     d="M4730 9715 c-397 -35 -886 -146 -1195 -270 -49 -20 -121 -49 -160 -65 -308 -123 -725 -367 -1036 -606 -96 -74 -339 -293 -471 -426 -223 -225 -369 -403 -536 -652 -172 -258 -264 -429 -429 -794 -22 -49 -126 -335 -156 -427 -34 -107 -102 -393 -126 -535 -54 -321 -66 -460 -66 -800 0 -347 10 -480 61 -785 83 -508 310 -1138 548 -1522 31 -50 56 -94 56 -98 0 -16 202 -305 274 -394 234 -284 367 -423 632 -662 81 -73 299 -242 397 -308 591 -396 1162 -622 1872 -740 436 -73 964 -73 1421 -1 510 81 1084 288 1559 562 762 440 1362 1084 1755 1883 264 538 386 974 467 1675 28 245 24 622 -11 905 -81 661 -207 1086 -473 1595 -274 526 -610 954 -1048 1334 -189 164 -261 220 -560 428 -179 124 -461 277 -705 381 -305 129 -729 247 -1070 296 -283 41 -702 52 -1000 26z m657 -445 c337 -27 680 -96 1003 -202 542 -177 1099 -525 1559 -972 137 -135 389 -434 494 -588 222 -326 422 -727 507 -1018 16 -52 33 -108 40 -125 19 -49 98 -373 114 -470 87 -517 82 -1054 -14 -1553 -46 -237 -138 -559 -223 -782 -29 -74 -114 -265 -132 -295 -7 -11 -40 -74 -74 -139 -74 -142 -187 -330 -242 -404 -22 -29 -37 -57 -33 -64 4 -6 3 -8 -4 -4 -6 3 -21 -8 -33 -26 -117 -167 -355 -423 -540 -582 -268 -230 -558 -425 -850 -572 -377 -189 -852 -337 -1279 -399 -599 -87 -1192 -42 -1809 136 -217 62 -576 215 -769 326 -500 289 -817 553 -1193 993 -144 169 -301 409 -457 700 -46 85 -132 279 -187 420 -20 52 -41 105 -45 117 -17 42 -99 328 -119 414 -27 115 -77 416 -92 554 -17 152 -18 709 -1 850 19 159 69 441 102 583 86 360 294 841 500 1152 103 157 225 328 250 350 3 3 38 46 77 95 66 83 360 382 478 486 191 169 300 250 550 410 154 99 424 239 610 317 346 145 810 257 1200 291 144 12 463 13 612 1z"
     id="path2"
     style="fill:#59ab6e;fill-opacity:1"
     transform="matrix(0.1,0,0,-0.1,0,1024)" />
</svg>
