<?xml version="1.0" standalone="no"?>
<!DOCTYPE svg PUBLIC "-//W3C//DTD SVG 20010904//EN"
 "http://www.w3.org/TR/2001/REC-SVG-20010904/DTD/svg10.dtd">
<svg version="1.0" xmlns="http://www.w3.org/2000/svg"
 width="700.000000pt" height="700.000000pt" viewBox="0 0 700.000000 700.000000"
 preserveAspectRatio="xMidYMid meet">
<metadata>
Created by potrace 1.14, written by Peter Selinger 2001-2017
</metadata>
<g transform="translate(0.000000,700.000000) scale(0.100000,-0.100000)"
fill="#000000" stroke="none">
<path d="M4830 5533 c-347 -59 -1303 -188 -1570 -213 -429 -39 -508 -42 -1127
-47 -507 -4 -625 -8 -634 -19 -6 -7 -11 -30 -12 -50 -1 -49 29 -74 89 -74 l44
0 0 -182 c0 -191 7 -229 44 -236 10 -2 71 22 137 54 l118 57 118 -55 c140 -66
163 -72 189 -54 18 14 19 27 15 206 -3 154 -1 194 10 201 8 5 74 9 146 9 157
0 139 23 147 -198 6 -168 20 -222 56 -222 19 0 151 63 232 111 l37 22 111 -47
c121 -52 153 -55 181 -16 18 24 18 31 5 135 -8 61 -17 142 -20 181 l-6 71 48
6 c26 4 93 9 148 13 l102 7 6 -29 c3 -16 15 -92 26 -169 35 -235 61 -245 232
-88 32 29 63 53 69 53 6 0 73 -18 150 -41 207 -61 218 -53 183 118 -12 62 -25
141 -29 176 l-7 62 442 67 c286 44 451 73 466 83 30 19 33 74 6 98 -18 17 -88
21 -152 10z m-898 -373 c8 -49 12 -90 8 -90 -4 0 -40 11 -80 25 -40 14 -85 25
-99 25 -16 0 -49 -18 -84 -46 -32 -25 -60 -44 -61 -42 -2 2 -7 42 -12 90 l-9
87 40 6 c22 3 83 12 135 19 160 23 145 30 162 -74z m-937 -77 c3 -38 8 -83 11
-102 5 -30 3 -33 -13 -26 -10 4 -43 17 -74 28 l-55 21 -82 -39 c-45 -21 -85
-36 -88 -33 -3 4 -8 49 -11 102 -7 111 -15 104 122 109 44 2 103 4 132 5 l51
2 7 -67z m-926 41 l31 -6 0 -99 c0 -55 -4 -99 -9 -99 -5 0 -41 14 -79 30 -39
17 -80 30 -92 30 -11 0 -50 -13 -85 -29 l-65 -30 0 105 0 104 134 0 c73 0 148
-3 165 -6z"/>
<path d="M4866 5105 c-85 -22 -173 -72 -237 -135 -65 -64 -102 -124 -135 -218
-21 -60 -24 -84 -24 -240 0 -144 3 -182 19 -230 58 -172 193 -306 358 -354 70
-21 73 -23 73 -53 0 -24 -7 -33 -33 -45 -38 -18 -47 -61 -22 -109 14 -29 20
-31 73 -33 31 -1 84 -1 117 0 72 4 95 24 95 83 0 42 -26 69 -67 69 -16 0 -23
6 -23 19 0 11 -2 26 -6 34 -4 11 10 17 55 26 150 30 294 141 362 281 55 111
62 149 63 310 1 161 -16 237 -73 335 -65 112 -177 203 -297 244 -82 27 -222
35 -298 16z m289 -164 c75 -37 167 -133 196 -206 22 -55 24 -74 24 -230 0
-166 -1 -171 -29 -232 -107 -232 -434 -294 -612 -116 -94 95 -131 219 -121
415 4 92 9 116 35 172 33 70 94 144 149 177 60 37 112 49 213 46 77 -2 104 -7
145 -26z"/>
<path d="M3359 4331 c-25 -33 -324 -404 -470 -582 -79 -96 -240 -294 -358
-438 -118 -145 -235 -285 -260 -312 l-46 -48 -142 -7 -143 -7 0 116 0 116 33
24 c128 94 267 200 290 221 33 31 35 65 4 94 -44 42 -84 31 -199 -54 -57 -42
-109 -81 -115 -87 -10 -7 -13 20 -13 130 l0 138 37 20 c93 51 181 181 191 285
5 59 -19 90 -71 90 -41 0 -59 -19 -76 -80 -32 -109 -80 -160 -154 -160 -76 0
-130 50 -162 150 -22 70 -40 90 -80 90 -57 0 -79 -44 -61 -122 25 -106 81
-185 173 -244 l53 -34 0 -136 0 -136 -23 19 c-182 143 -211 157 -258 132 -27
-14 -41 -53 -29 -83 5 -13 65 -69 133 -124 179 -144 177 -142 177 -263 l0 -99
-145 0 c-198 0 -236 -9 -301 -74 -42 -42 -54 -62 -63 -105 -17 -80 4 -140 70
-201 l38 -36 25 -214 c14 -118 28 -262 32 -319 6 -90 10 -107 32 -133 l25 -29
1896 3 c1043 2 1903 7 1912 11 23 11 36 45 44 113 4 32 29 204 56 381 27 176
49 331 49 342 0 11 16 41 35 66 100 131 60 287 -93 362 l-57 28 -395 0 -395 0
-58 -32 -57 -31 -210 276 c-115 152 -300 396 -410 542 -111 146 -235 309 -278
363 l-76 97 -47 0 c-34 0 -50 -5 -60 -19z m-12 -423 c-11 -282 -32 -421 -117
-768 -66 -268 -157 -478 -274 -633 -76 -101 -235 -252 -338 -320 -78 -52 -240
-135 -295 -152 -27 -8 -29 5 -13 100 5 33 19 136 30 230 11 98 24 171 31 174
6 2 26 17 45 33 74 65 79 201 10 291 l-32 42 86 105 c77 93 439 540 755 932
61 75 112 137 114 137 2 1 1 -77 -2 -171z m322 -68 c309 -410 560 -736 616
-800 67 -76 75 -94 75 -163 0 -57 23 -107 66 -143 23 -19 28 -41 68 -315 25
-162 47 -318 51 -346 l7 -53 -42 15 c-80 28 -257 127 -341 190 -232 174 -405
438 -508 775 -45 147 -102 400 -130 582 -35 220 -52 504 -29 478 7 -9 82 -108
167 -220z m-123 -967 c45 -143 134 -322 216 -438 95 -135 242 -278 373 -363
61 -39 119 -78 130 -86 18 -14 -23 -15 -386 -16 -223 0 -615 3 -872 7 l-466 6
57 30 c252 131 476 360 606 621 66 131 132 327 175 521 18 77 34 147 37 155 4
8 26 -61 50 -155 24 -93 60 -221 80 -282z m1813 98 c39 -37 44 -93 9 -113 -28
-15 -790 -13 -819 3 -52 27 -41 91 21 121 31 16 72 18 396 18 l362 0 31 -29z
m-3061 -198 c18 -25 15 -41 -13 -69 l-25 -25 -394 3 c-371 3 -395 4 -415 22
-28 26 -26 50 7 77 l27 22 400 -7 c360 -5 401 -8 413 -23z m3002 -110 c0 -46
-27 -252 -65 -499 l-28 -181 -141 -6 c-78 -4 -187 -7 -243 -7 l-102 0 -6 33
c-16 94 -105 673 -105 684 0 10 69 13 345 13 l345 0 0 -37z m-3080 -140 c-1
-10 -20 -135 -43 -278 l-42 -260 -65 -6 c-36 -4 -158 -7 -272 -8 -192 -1 -208
0 -208 17 0 26 -49 514 -54 535 -4 16 17 17 340 17 321 0 344 -1 344 -17z"/>
</g>
</svg>
